HIERARCHY
ROOT joint_Root
{
	OFFSET 0.0 0.0 0.0
	CHANNELS 6 Xposition Yposition Zposition Zrotation Xrotation Yrotation 
	JOINT Hips
	{
		OFFSET -0.726466 93.3139 -2.00062
		CHANNELS 6 Xposition Yposition Zposition Zrotation Xrotation Yrotation 
		JOINT Spine
		{
			OFFSET 15.7357 0.0 0.0
			CHANNELS 6 Xposition Yposition Zposition Zrotation Xrotation Yrotation 
			JOINT Chest
			{
				OFFSET 8.98455 -0.406207 0.0
				CHANNELS 6 Xposition Yposition Zposition Zrotation Xrotation Yrotation 
				JOINT Neck
				{
					OFFSET 16.3773 0.0 0.0
					CHANNELS 6 Xposition Yposition Zposition Zrotation Xrotation Yrotation 
					JOINT Head
					{
						OFFSET 6.45672 0.0 0.0
						CHANNELS 6 Xposition Yposition Zposition Zrotation Xrotation Yrotation 
						End Site
						{
							OFFSET 0.0 0.0 0.0
						}
					}
				}
				JOINT Shoulder_L
				{
					OFFSET 12.9942 -0.242716 4.98039
					CHANNELS 6 Xposition Yposition Zposition Zrotation Xrotation Yrotation 
					JOINT UpperArm_L
					{
						OFFSET 5.34809 0.0 0.0
						CHANNELS 6 Xposition Yposition Zposition Zrotation Xrotation Yrotation 
						JOINT LowerArm_L
						{
							OFFSET 24.3286 1.87007e-05 0.0
							CHANNELS 6 Xposition Yposition Zposition Zrotation Xrotation Yrotation 
							JOINT Hand_L
							{
								OFFSET 22.2916 0.0 0.0
								CHANNELS 6 Xposition Yposition Zposition Zrotation Xrotation Yrotation 
								End Site
								{
									OFFSET 0.0 0.0 0.0
								}
							}
						}
					}
				}
				JOINT Shoulder_R
				{
					OFFSET 12.9945 -0.242716 -4.98039
					CHANNELS 6 Xposition Yposition Zposition Zrotation Xrotation Yrotation 
					JOINT UpperArm_R
					{
						OFFSET -5.34813 0.0 0.0
						CHANNELS 6 Xposition Yposition Zposition Zrotation Xrotation Yrotation 
						JOINT LowerArm_R
						{
							OFFSET -24.3289 0.000322201 0.0
							CHANNELS 6 Xposition Yposition Zposition Zrotation Xrotation Yrotation 
							JOINT Hand_R
							{
								OFFSET -22.2915 -0.000108084 0.0
								CHANNELS 6 Xposition Yposition Zposition Zrotation Xrotation Yrotation 
								End Site
								{
									OFFSET 0.0 0.0 0.0
								}
							}
						}
					}
				}
			}
		}
		JOINT UpperLeg_L
		{
			OFFSET -2.19248 -6.46944 0.0
			CHANNELS 6 Xposition Yposition Zposition Zrotation Xrotation Yrotation 
			JOINT LowerLeg_L
			{
				OFFSET 39.0811 0.0 -1.23785e-05
				CHANNELS 6 Xposition Yposition Zposition Zrotation Xrotation Yrotation 
				JOINT Foot_L
				{
					OFFSET 40.9854 0.0 -1.26872e-05
					CHANNELS 6 Xposition Yposition Zposition Zrotation Xrotation Yrotation 
					JOINT Toes_L
					{
						OFFSET 11.7543 0.0 0.0
						CHANNELS 6 Xposition Yposition Zposition Zrotation Xrotation Yrotation 
						End Site
						{
							OFFSET 0.0 0.0 0.0
						}
					}
				}
			}
		}
		JOINT UpperLeg_R
		{
			OFFSET -2.19251 6.46944 0.0
			CHANNELS 6 Xposition Yposition Zposition Zrotation Xrotation Yrotation 
			JOINT LowerLeg_R
			{
				OFFSET -39.0811 -0.00228153 -0.0401928
				CHANNELS 6 Xposition Yposition Zposition Zrotation Xrotation Yrotation 
				JOINT Foot_R
				{
					OFFSET -40.9854 0.0 0.0
					CHANNELS 6 Xposition Yposition Zposition Zrotation Xrotation Yrotation 
					JOINT Toes_R
					{
						OFFSET -11.7543 0.0 0.0
						CHANNELS 6 Xposition Yposition Zposition Zrotation Xrotation Yrotation 
						End Site
						{
							OFFSET 0.0 0.0 0.0
						}
					}
				}
			}
		}
	}
}
MOTION
Frames:	4
Frame Time:	0.0333333
0.000000 0.000000 0.000000 0.000000 0.000000 -0.000000 133.459000 89.364700 123.608000 92.198500 -21.176600 1.677860 15.735700 0.000005 -0.000001 64.755600 81.679900 -64.831300 8.984550 -0.406207 -0.000000 7.322570 -7.070300 0.301734 16.377300 -0.000001 -0.000001 5.751640 -17.157900 1.402180 6.456720 -0.000001 -0.000000 0.081580 -22.680300 10.532000 12.994200 -0.242716 4.980390 -88.485700 -4.596120 -71.742300 5.348090 -0.000007 -0.000001 -45.388400 19.720400 -40.971800 24.328600 0.000019 0.000005 5.600610 4.116230 -53.796100 22.291600 -0.000001 0.000005 7.126660 5.591570 -10.850500 12.994500 -0.242716 -4.980390 88.991800 2.081250 -64.146300 -5.348130 -0.000001 -0.000004 -73.417800 25.964000 6.793430 -24.328900 0.000322 -0.000009 4.423890 9.988370 -24.044100 -22.291500 -0.000108 -0.000004 0.323232 5.512380 -7.040690 -2.192480 -6.469440 -0.000000 -174.981000 -16.232000 1.926730 39.081100 -0.000007 -0.000012 -0.009740 0.017857 28.611200 40.985400 -0.000006 -0.000013 -5.354540 -7.331310 -73.150800 11.754300 -0.000000 0.000003 -2.600110 -3.436630 -19.031000 -2.192510 6.469440 -0.000001 -163.833000 29.840000 152.435000 -39.081100 -0.002282 -0.040193 0.001693 0.013654 6.893890 -40.985400 0.000008 0.000006 0.264932 -8.642670 -55.419200 -11.754300 -0.000006 -0.000006 -0.024092 -0.188982 -24.302800
0.000000 0.000000 0.000000 0.000000 0.000000 -0.000000 132.167000 88.680100 126.944000 93.211700 -21.659000 1.950380 15.735700 0.000005 -0.000001 63.651300 81.810700 -63.604700 8.984550 -0.406207 -0.000000 6.956360 -7.245160 0.534167 16.377300 -0.000001 -0.000001 5.836780 -17.442800 1.338890 6.456720 -0.000001 -0.000000 -0.220855 -23.322100 10.267800 12.994200 -0.242716 4.980390 -88.530800 -4.434310 -71.647300 5.348090 -0.000007 -0.000001 -46.198600 19.899100 -40.898900 24.328600 0.000019 0.000005 5.770730 4.085730 -54.815400 22.291600 -0.000001 0.000005 7.609720 5.592040 -10.877700 12.994500 -0.242716 -4.980390 89.007300 2.054630 -64.204900 -5.348130 -0.000001 -0.000004 -73.406800 26.096000 6.421180 -24.328900 0.000322 -0.000009 4.227470 10.103400 -22.853800 -22.291500 -0.000108 -0.000004 0.034409 5.509660 -6.927440 -2.192480 -6.469440 -0.000000 -175.195000 -15.931300 3.740230 39.081100 -0.000007 -0.000012 -0.049660 0.086902 29.746400 40.985400 -0.000006 -0.000013 -6.663190 -7.186510 -72.732100 11.754300 -0.000000 0.000003 -2.650940 -3.331290 -21.385000 -2.192510 6.469440 -0.000001 -163.315000 30.448600 151.201000 -39.081100 -0.002282 -0.040193 -0.001708 0.040544 7.102830 -40.985400 0.000008 0.000006 1.398510 -12.491200 -55.278800 -11.754300 -0.000006 -0.000006 -0.025489 -0.195989 -24.592500
0.000000 0.000000 0.000000 0.000000 0.000000 -0.000000 130.480000 88.044600 130.458000 93.340400 -21.654600 1.595150 15.735700 0.000005 -0.000001 61.940100 82.044600 -61.404800 8.984550 -0.406207 -0.000000 6.351400 -7.469260 1.485560 16.377300 -0.000001 -0.000001 6.026610 -17.835000 1.330740 6.456720 -0.000001 -0.000000 -0.777435 -23.783300 9.877230 12.994200 -0.242716 4.980390 -88.673200 -4.047660 -71.833800 5.348090 -0.000007 -0.000001 -47.738500 20.817700 -39.590700 24.328600 0.000019 0.000005 5.810070 3.979050 -55.707500 22.291600 -0.000001 0.000005 8.088720 5.591680 -10.857000 12.994500 -0.242716 -4.980390 88.787800 2.499520 -64.117700 -5.348130 -0.000001 -0.000004 -72.555300 26.526500 5.629680 -24.328900 0.000322 -0.000009 4.318300 10.569100 -22.381100 -22.291500 -0.000108 -0.000004 -0.114355 5.507930 -6.856260 -2.192480 -6.469440 -0.000000 -174.290000 -15.334100 4.843070 39.081100 -0.000007 -0.000012 -0.059506 0.095572 31.907800 40.985400 -0.000006 -0.000013 -8.127100 -6.349760 -72.183900 11.754300 -0.000000 0.000003 -1.641930 -1.875350 -20.909500 -2.192510 6.469440 -0.000001 -162.402000 29.655300 149.475000 -39.081100 -0.002282 -0.040193 -0.046981 0.274698 10.380400 -40.985400 0.000008 0.000006 15.846500 -13.911100 -49.100000 -11.754300 -0.000006 -0.000006 -0.027896 -0.207655 -25.075400
0.000000 0.000000 0.000000 0.000000 0.000000 -0.000000 128.412000 87.563800 134.117000 92.570100 -21.283500 1.133990 15.735700 0.000005 -0.000001 61.076000 82.249100 -59.733200 8.984550 -0.406207 -0.000000 5.931200 -7.499630 3.074500 16.377300 -0.000001 -0.000001 5.857590 -18.457000 1.390090 6.456720 -0.000001 -0.000000 -1.349370 -24.435000 9.654860 12.994200 -0.242716 4.980390 -88.927500 -3.372150 -72.345600 5.348090 -0.000007 -0.000001 -49.128900 22.747900 -37.642400 24.328600 0.000019 0.000005 5.894820 3.959560 -56.225300 22.291600 -0.000001 0.000005 8.120430 5.594930 -11.044100 12.994500 -0.242716 -4.980390 88.324100 3.402090 -63.754600 -5.348130 -0.000001 -0.000004 -70.985500 26.477600 4.619800 -24.328900 0.000322 -0.000009 4.207990 10.247500 -22.473900 -22.291500 -0.000108 -0.000004 -0.000005 5.513070 -7.069340 -2.192480 -6.469440 -0.000000 -172.003000 -14.908500 5.304240 39.081100 -0.000007 -0.000012 -0.050830 0.071375 35.457600 40.985400 -0.000006 -0.000013 -9.215260 -4.962020 -69.736000 11.754300 -0.000000 0.000003 -0.030524 -0.219870 -25.585700 -2.192510 6.469440 -0.000001 -163.049000 28.081400 147.411000 -39.081100 -0.002282 -0.040193 -0.082096 0.258966 18.255400 -40.985400 0.000008 0.000006 19.421700 -14.802100 -46.155200 -11.754300 -0.000006 -0.000006 -0.027992 -0.208110 -25.094200
